
<svg viewBox="0 0 1454 721" xmlns="http://www.w3.org/2000/svg" version="1.1">
    <path d="M 0.00 0.00 L 1454.00 0.00 L 1454.00 721.00 L 0.00 721.00 L 0.00 0.00 Z" fill="#e0e0e8" />
    <path d="M 240.18 230.89 C 257.18 238.06 271.25 248.86 284.91 261.06 C 288.06 257.77 291.33 254.72 294.95 251.94 C 309.01 240.58 324.70 230.29 342.66 226.61 C 351.87 225.52 360.75 225.87 368.46 231.60 C 377.09 238.14 380.96 249.87 382.55 260.18 C 384.17 267.81 383.57 275.27 383.69 283.00 C 383.34 294.14 381.06 304.77 379.22 315.32 C 385.72 317.74 392.25 320.12 398.72 322.64 C 411.80 328.18 425.30 335.48 435.37 345.66 C 441.59 352.06 446.82 360.90 447.19 370.01 C 446.82 376.55 444.14 383.06 440.53 388.48 C 430.20 402.09 415.56 410.34 400.17 417.04 C 393.26 419.67 386.37 422.39 379.42 424.91 C 381.14 432.84 382.78 440.88 383.53 448.96 C 383.59 454.67 384.81 460.33 384.48 466.02 C 383.62 475.28 383.46 484.07 379.78 492.80 C 376.35 502.11 369.83 510.24 359.90 512.85 C 352.51 514.57 344.44 514.20 337.20 511.92 C 327.58 509.04 318.35 504.62 310.04 498.98 C 301.28 493.06 292.84 486.56 285.10 479.34 C 280.22 483.68 275.30 487.95 270.10 491.90 C 257.32 501.69 242.09 511.06 225.98 513.64 C 218.90 513.92 212.15 514.71 205.70 511.34 C 197.14 507.72 192.29 498.98 189.36 490.61 C 184.93 476.42 184.92 460.57 186.76 445.94 C 187.69 439.15 188.46 432.43 190.30 425.81 C 189.90 425.21 189.49 424.62 189.09 424.02 C 172.19 419.11 155.31 411.63 141.27 400.91 C 135.50 395.95 129.09 390.13 125.87 383.12 C 123.42 378.06 121.70 372.19 122.70 366.54 C 123.98 357.84 129.62 349.82 135.92 343.93 C 143.79 336.60 152.81 331.12 162.53 326.63 C 171.25 321.83 180.54 318.98 190.00 315.49 C 187.93 305.77 186.80 295.92 185.82 286.04 C 185.64 278.06 185.26 269.85 186.60 261.97 C 187.83 254.71 188.58 247.95 192.55 241.55 C 196.37 235.11 201.38 229.74 208.84 227.74 C 219.42 224.26 230.11 227.26 240.18 230.89 Z" fill="#e67f22" />
    <path d="M 355.33 242.23 C 358.98 243.37 361.97 247.03 363.74 250.28 C 367.71 259.12 368.48 268.20 368.19 277.77 C 368.61 289.21 366.38 299.80 364.25 310.97 C 357.27 310.07 350.45 308.41 343.49 307.32 C 336.63 306.04 329.69 305.37 322.80 304.26 C 314.40 292.94 305.66 281.99 295.67 272.02 C 308.08 260.75 320.75 250.86 336.43 244.47 C 342.48 242.01 348.85 240.77 355.33 242.23 Z" fill="#e0e0e8" />
    <path d="M 217.98 241.64 C 223.37 241.57 228.87 243.24 233.86 245.18 C 243.49 249.26 252.47 254.71 260.64 261.25 C 265.08 264.46 268.98 268.30 273.35 271.59 C 270.61 275.80 266.79 278.88 263.65 282.75 C 258.83 288.57 253.97 294.45 249.52 300.56 C 248.54 301.76 247.56 303.31 246.19 304.07 C 243.76 305.01 240.93 305.16 238.36 305.49 C 232.58 306.07 226.92 307.17 221.20 308.13 C 215.76 309.11 210.49 310.60 204.94 310.93 C 203.70 303.64 202.29 296.20 201.62 288.83 C 201.24 282.70 201.57 276.54 201.43 270.41 C 201.29 263.84 202.78 257.24 205.31 251.21 C 207.44 246.32 212.38 241.66 217.98 241.64 Z" fill="#e0e0e8" />
    <path d="M 470.70 256.52 C 478.60 255.97 486.62 256.43 494.54 256.34 C 494.60 337.13 494.50 417.93 494.59 498.72 C 486.68 499.57 478.44 499.61 470.53 498.65 C 470.57 421.43 470.53 344.21 470.55 267.00 C 470.57 263.52 470.36 259.99 470.70 256.52 Z" fill="#e67f22" />
    <path d="M 285.12 283.20 C 289.63 288.92 294.86 294.00 299.51 299.61 C 299.65 300.55 299.79 301.48 299.93 302.42 C 289.44 302.36 278.95 302.57 268.47 302.31 C 270.02 299.56 271.72 297.20 273.91 294.92 C 277.81 290.83 280.38 286.41 285.12 283.20 Z" fill="#e0e0e8" />
    <path d="M 953.40 304.50 C 957.75 303.28 962.61 303.57 967.07 303.85 C 971.78 304.14 975.81 306.73 978.29 310.70 C 980.97 314.88 981.11 320.46 978.67 324.79 C 976.29 328.97 971.91 331.96 967.05 332.24 C 963.37 332.48 959.62 332.50 955.95 332.12 C 949.24 331.41 943.29 324.84 943.55 318.03 C 943.27 312.02 947.85 306.38 953.40 304.50 Z" fill="#e67f22" />
    <path d="M 529.00 308.25 C 557.99 308.29 587.01 308.28 616.00 308.26 C 618.58 308.32 620.98 308.40 623.21 309.85 C 629.26 313.41 631.84 321.46 628.68 327.80 C 626.47 332.31 622.18 335.61 617.01 335.58 C 608.10 335.71 599.17 335.57 590.25 335.61 C 589.73 339.80 589.58 343.78 589.73 348.00 C 589.75 375.33 589.74 402.68 589.73 430.01 C 590.02 437.41 584.43 444.18 577.48 446.21 C 571.88 447.25 566.20 446.96 561.63 443.23 C 556.49 439.31 554.65 433.26 554.66 427.00 C 554.64 396.54 554.75 366.08 554.61 335.63 C 545.73 335.54 536.84 335.71 527.96 335.60 C 523.05 335.63 518.87 332.62 516.51 328.46 C 512.87 322.24 515.24 314.04 521.17 310.19 C 523.53 308.39 526.14 308.28 529.00 308.25 Z" fill="#e67f22" />
    <path d="M 234.72 321.63 C 228.84 331.35 222.99 341.07 217.71 351.14 C 214.35 343.19 211.94 334.96 209.13 326.82 C 217.53 324.55 226.11 322.90 234.72 321.63 Z" fill="#e0e0e8" />
    <path d="M 335.08 321.61 C 343.39 322.99 351.75 324.56 359.91 326.68 C 357.76 334.54 355.05 342.19 352.22 349.83 C 351.78 349.76 351.34 349.69 350.91 349.62 C 346.27 339.91 339.90 331.19 335.08 321.61 Z" fill="#e0e0e8" />
    <path d="M 194.03 331.00 C 197.60 341.85 201.03 352.85 205.67 363.20 C 206.57 365.37 207.74 367.56 208.25 369.86 C 208.15 372.00 207.01 374.18 206.21 376.15 C 201.24 386.98 198.22 397.98 194.17 409.14 C 184.57 406.83 175.33 402.74 166.44 398.52 C 158.71 394.05 150.52 389.18 144.30 382.70 C 141.04 378.92 137.18 373.23 138.30 367.99 C 139.32 363.64 142.45 359.66 145.43 356.43 C 151.58 350.69 158.61 345.84 166.13 342.09 C 175.02 337.57 184.36 333.50 194.03 331.00 Z" fill="#e0e0e8" />
    <path d="M 270.00 331.21 C 278.67 331.23 287.33 331.27 296.00 331.21 C 302.78 331.09 309.91 333.65 316.24 335.89 C 309.35 337.85 302.36 339.30 295.41 341.01 C 292.05 341.81 288.44 342.72 284.98 342.79 C 281.67 342.80 278.24 342.00 275.01 341.29 C 267.63 339.59 260.24 338.23 252.97 336.05 C 258.39 334.06 264.20 331.09 270.00 331.21 Z" fill="#e0e0e8" />
    <path d="M 375.30 330.85 C 384.36 333.53 393.21 336.89 401.60 341.25 C 409.47 345.02 416.79 349.84 423.32 355.63 C 426.72 359.03 430.11 363.36 431.29 368.10 C 432.22 371.86 430.00 375.93 427.98 378.99 C 423.43 386.09 415.48 391.07 408.40 395.40 C 397.85 401.97 386.72 405.27 375.39 409.70 C 372.29 398.30 368.05 387.34 363.54 376.45 C 362.71 374.41 361.50 372.22 361.31 370.00 C 361.50 368.29 362.27 366.58 362.90 364.98 C 367.60 353.81 371.76 342.44 375.30 330.85 Z" fill="#e0e0e8" />
    <path d="M 249.01 341.51 C 258.71 343.79 268.22 346.93 277.98 349.04 C 277.22 350.80 276.46 352.48 275.06 353.84 C 271.72 357.33 268.47 360.90 265.05 364.31 C 260.87 358.71 256.74 353.06 252.56 347.46 C 251.18 345.60 250.01 343.61 249.01 341.51 Z" fill="#e0e0e8" />
    <path d="M 322.05 341.40 C 316.79 349.43 310.99 357.24 305.20 364.91 C 300.10 360.02 295.10 355.01 290.23 349.89 C 300.75 346.87 311.39 343.93 322.05 341.40 Z" fill="#e0e0e8" />
    <path d="M 242.80 342.22 C 247.90 349.44 253.19 356.53 258.16 363.83 C 249.92 362.21 241.91 359.45 233.83 357.18 C 235.78 353.06 237.84 348.96 240.16 345.02 C 240.85 343.82 241.61 342.93 242.80 342.22 Z" fill="#e0e0e8" />
    <path d="M 328.27 341.96 C 331.37 346.82 333.98 352.02 336.58 357.16 C 328.61 359.41 320.69 361.98 312.61 363.83 C 314.45 360.34 316.47 357.15 318.94 354.08 C 322.19 350.01 324.41 345.53 328.27 341.96 Z" fill="#e0e0e8" />
    <path d="M 787.04 345.44 C 804.02 349.29 818.28 364.36 821.31 381.48 C 821.97 386.90 822.46 393.38 820.23 398.51 C 818.26 403.00 813.65 404.66 809.00 404.63 C 790.45 404.69 771.86 404.62 753.30 404.67 C 753.83 409.00 754.73 413.02 757.50 416.51 C 762.36 423.26 771.56 426.07 779.41 423.41 C 785.94 421.36 789.80 416.18 796.18 414.05 C 801.14 412.45 806.69 413.97 810.10 417.92 C 815.06 422.93 814.89 432.06 810.12 437.14 C 805.61 442.28 798.63 445.33 792.03 446.60 C 779.70 449.15 766.63 448.71 754.58 445.02 C 742.17 441.25 731.15 432.14 725.67 420.33 C 722.37 413.32 721.07 405.67 720.60 398.00 C 720.69 386.38 722.75 375.14 729.32 365.34 C 735.22 356.02 744.55 349.05 755.15 346.01 C 765.46 343.02 776.62 342.91 787.04 345.44 Z" fill="#e67f22" />
    <path d="M 906.84 346.90 C 912.87 349.04 919.14 351.72 922.59 357.43 C 925.03 361.08 924.99 365.80 924.66 370.02 C 924.43 375.02 920.04 379.46 915.03 379.68 C 912.31 379.86 909.30 379.99 906.67 379.16 C 901.24 376.72 896.79 370.86 891.07 368.82 C 888.19 367.99 884.96 368.11 882.00 368.33 C 878.54 368.55 875.61 370.94 873.42 373.45 C 869.55 377.88 868.29 384.29 867.77 389.98 C 867.18 398.37 867.41 407.28 871.09 415.01 C 872.96 418.58 876.19 421.81 880.03 423.16 C 884.78 424.37 890.21 424.04 894.44 421.37 C 898.96 418.77 901.53 414.37 905.97 411.93 C 911.50 408.97 919.87 409.58 923.94 414.81 C 926.87 418.21 926.87 422.77 926.47 427.00 C 925.73 432.72 921.76 436.98 917.16 440.09 C 908.45 446.17 897.38 447.70 887.01 448.17 C 875.91 448.33 863.97 446.77 854.39 440.74 C 846.22 435.88 840.40 427.79 837.23 418.92 C 831.10 401.05 832.16 378.29 843.91 362.84 C 849.54 355.12 857.61 349.29 866.77 346.53 C 879.42 342.54 894.27 342.68 906.84 346.90 Z" fill="#e67f22" />
    <path d="M 1040.23 344.24 C 1053.05 342.61 1067.66 344.22 1078.87 351.06 C 1088.76 357.35 1096.18 367.42 1099.24 378.73 C 1103.63 394.86 1102.05 413.44 1092.44 427.44 C 1085.85 437.15 1075.53 443.93 1064.10 446.47 C 1051.70 449.30 1038.07 448.83 1026.14 444.27 C 1008.52 437.43 997.08 418.63 997.26 400.00 C 997.28 392.93 996.88 385.79 999.03 379.01 C 1002.35 367.41 1009.55 357.04 1020.04 350.88 C 1026.23 347.18 1033.12 345.20 1040.23 344.24 Z" fill="#e67f22" />
    <path d="M 1130.89 344.82 C 1134.20 344.63 1137.51 344.51 1140.82 344.70 C 1143.12 346.58 1145.59 348.25 1147.86 350.16 C 1151.32 353.60 1152.61 358.20 1152.51 363.00 C 1152.48 376.67 1152.49 390.33 1152.47 404.00 C 1152.48 407.99 1152.93 411.82 1154.66 415.47 C 1156.13 418.44 1159.14 420.65 1162.22 421.72 C 1167.57 423.48 1173.59 421.41 1176.99 416.99 C 1180.58 412.43 1181.56 405.64 1181.52 400.00 C 1181.47 387.67 1181.53 375.33 1181.47 363.00 C 1181.46 359.91 1181.67 356.98 1183.21 354.24 C 1186.55 347.21 1195.33 343.10 1202.81 345.36 C 1207.39 346.50 1211.33 350.12 1213.59 354.18 C 1216.09 358.87 1215.38 363.85 1215.46 369.00 C 1215.45 389.33 1215.44 409.68 1215.47 430.00 C 1215.59 434.54 1214.19 438.73 1211.01 442.00 C 1205.24 448.43 1193.84 448.36 1188.10 441.90 C 1184.28 437.98 1183.84 433.26 1183.39 428.06 C 1180.12 435.79 1174.16 442.36 1166.30 445.52 C 1159.97 448.10 1152.89 448.07 1146.20 447.31 C 1138.44 446.21 1130.45 442.81 1125.76 436.28 C 1120.31 429.00 1118.70 418.87 1118.52 410.00 C 1118.53 394.00 1118.50 377.98 1118.52 361.99 C 1118.47 355.34 1122.38 349.44 1128.20 346.42 C 1131.67 344.66 1136.09 345.31 1139.84 345.34 C 1136.86 345.05 1133.89 344.81 1130.89 344.82 Z" fill="#e67f22" />
    <path d="M 1309.22 351.84 C 1313.95 355.01 1318.93 359.82 1318.63 366.00 C 1318.98 370.57 1316.22 375.14 1311.87 376.71 C 1308.33 378.10 1304.53 377.37 1301.21 375.75 C 1297.21 373.77 1294.77 370.21 1290.80 368.16 C 1285.75 365.45 1279.52 364.92 1273.94 365.83 C 1269.83 366.73 1265.55 370.44 1266.67 375.05 C 1268.28 378.93 1271.97 379.88 1275.68 380.87 C 1282.04 382.31 1288.48 383.37 1294.82 384.91 C 1304.37 387.13 1313.73 390.97 1319.18 399.60 C 1323.69 406.50 1323.00 414.14 1322.64 422.01 C 1321.99 430.78 1316.56 438.62 1308.95 442.87 C 1302.10 446.50 1293.65 447.75 1286.01 448.29 C 1275.93 448.72 1265.90 448.67 1256.02 446.47 C 1249.82 445.20 1242.96 443.04 1238.02 438.96 C 1231.43 433.39 1230.61 422.56 1235.81 415.85 C 1239.48 411.50 1244.85 411.98 1249.99 412.51 C 1256.80 413.96 1261.28 420.71 1267.51 423.51 C 1273.25 426.26 1280.88 427.32 1286.80 424.63 C 1290.63 422.89 1291.35 418.43 1290.30 414.75 C 1289.09 412.07 1286.10 411.11 1283.49 410.33 C 1272.29 407.48 1260.35 406.63 1250.08 400.91 C 1244.30 397.81 1239.48 393.27 1236.90 387.17 C 1233.31 378.67 1234.05 368.46 1238.75 360.55 C 1242.75 353.75 1250.06 349.39 1257.35 346.91 C 1274.51 341.68 1293.65 342.32 1309.22 351.84 Z" fill="#e67f22" />
    <path d="M 654.44 345.62 C 661.29 343.07 668.84 346.19 672.85 352.05 C 675.58 356.04 675.42 360.24 675.72 364.86 C 678.16 359.89 680.68 354.41 684.20 350.12 C 690.29 342.14 705.14 343.13 709.49 352.46 C 712.14 358.70 711.42 367.17 705.42 371.30 C 701.59 374.31 697.57 373.33 693.02 374.23 C 687.98 375.00 683.63 378.12 681.20 382.59 C 678.43 387.79 677.77 394.21 677.67 400.00 C 677.63 410.01 677.73 420.02 677.67 430.03 C 677.82 436.11 674.06 441.79 668.92 444.81 C 665.39 446.89 661.13 446.93 657.17 446.47 C 652.50 445.70 648.27 442.20 645.95 438.16 C 643.91 434.68 643.64 430.95 643.64 427.00 C 643.75 405.02 643.60 382.96 643.71 360.98 C 643.66 354.08 647.93 347.90 654.44 345.62 Z" fill="#e67f22" />
    <path d="M 957.98 345.30 C 965.51 343.04 974.14 347.68 977.37 354.64 C 978.79 357.69 978.67 360.71 978.72 364.00 C 978.63 386.32 978.74 408.70 978.66 431.01 C 978.71 435.48 976.61 439.40 973.39 442.39 C 967.55 448.25 956.43 448.25 950.56 442.43 C 947.28 439.45 945.18 435.55 945.30 431.01 C 945.28 410.72 945.32 390.30 945.29 370.00 C 945.36 365.70 944.92 361.17 945.74 356.94 C 947.27 351.49 952.37 346.45 957.98 345.30 Z" fill="#e67f22" />
    <path d="M 285.02 352.32 C 290.54 357.39 295.96 362.78 301.06 368.28 C 290.43 368.56 279.67 368.53 269.04 368.28 C 274.10 362.75 279.56 357.45 285.02 352.32 Z" fill="#e0e0e8" />
    <path d="M 238.09 366.40 C 243.88 367.38 249.16 369.44 254.80 370.96 C 257.12 371.65 259.58 372.22 261.76 373.28 C 263.07 374.79 263.79 376.91 264.57 378.72 C 268.78 389.34 273.42 399.76 277.49 410.43 C 272.28 405.57 267.90 400.04 263.05 394.84 C 254.75 385.37 245.97 376.22 238.09 366.40 Z" fill="#e0e0e8" />
    <path d="M 331.19 366.33 C 327.72 371.42 323.35 375.59 319.38 380.26 C 314.78 385.37 310.28 390.57 305.60 395.60 C 301.24 400.54 296.99 405.52 292.14 410.00 C 295.98 399.56 300.63 389.41 304.71 379.06 C 305.50 377.18 306.25 375.12 307.47 373.48 C 308.69 372.51 310.48 372.18 311.93 371.70 C 318.40 370.01 324.65 367.73 331.19 366.33 Z" fill="#e0e0e8" />
    <path d="M 774.04 366.33 C 779.48 366.53 784.57 370.33 786.93 375.14 C 788.59 378.39 788.90 381.67 789.46 385.22 C 777.44 385.32 765.40 385.29 753.38 385.23 C 754.03 378.98 756.26 373.27 761.36 369.33 C 765.07 366.27 769.43 366.08 774.04 366.33 Z" fill="#e0e0e8" />
    <path d="M 1044.36 368.52 C 1049.71 367.85 1055.23 367.68 1059.51 371.48 C 1065.38 376.57 1066.89 385.65 1067.44 392.99 C 1067.72 401.11 1066.75 410.88 1062.00 417.74 C 1057.44 424.04 1049.32 425.10 1042.34 422.68 C 1037.78 420.90 1034.88 416.29 1033.19 411.91 C 1029.79 401.79 1029.80 390.81 1032.82 380.60 C 1034.79 375.05 1038.26 369.88 1044.36 368.52 Z" fill="#e0e0e8" />
    <path d="M 269.30 373.65 C 279.81 373.34 290.38 373.49 300.90 373.56 C 298.89 379.64 296.30 385.45 294.02 391.43 C 290.99 398.68 288.54 406.25 284.95 413.24 C 281.32 405.29 278.37 397.03 275.07 388.94 C 273.17 383.86 270.70 378.88 269.30 373.65 Z" fill="#e0e0e8" />
    <path d="M 217.68 389.86 C 220.39 392.69 221.54 396.92 223.71 400.20 C 227.06 406.46 231.31 412.19 234.25 418.65 C 225.88 417.08 217.49 415.77 209.25 413.56 C 212.23 405.75 214.05 397.39 217.68 389.86 Z" fill="#e0e0e8" />
    <path d="M 351.98 389.78 C 354.90 397.53 358.41 405.47 359.96 413.60 C 351.67 415.73 343.40 417.36 334.92 418.54 C 338.44 412.14 342.54 406.10 345.98 399.65 C 348.03 396.14 349.30 392.60 351.98 389.78 Z" fill="#e0e0e8" />
    <path d="M 205.61 429.26 C 208.44 429.33 211.33 430.11 214.09 430.70 C 223.19 432.79 232.36 434.07 241.61 435.21 C 244.17 435.75 246.59 435.46 248.21 437.82 C 252.50 443.54 256.65 449.24 261.41 454.59 C 265.19 459.57 270.00 463.48 273.46 468.70 C 261.94 478.72 250.78 487.98 236.68 494.29 C 231.28 496.63 225.64 498.07 219.87 499.18 C 216.71 498.45 212.63 498.02 210.02 495.99 C 207.43 493.50 205.75 489.93 204.38 486.66 C 200.48 475.42 201.45 464.75 201.57 453.01 C 202.34 445.08 203.46 436.94 205.61 429.26 Z" fill="#e0e0e8" />
    <path d="M 364.28 428.95 C 367.47 443.74 369.95 459.93 367.93 475.01 C 367.35 480.58 365.90 486.25 363.27 491.21 C 361.14 495.13 357.66 498.12 353.03 498.34 C 342.82 499.16 333.10 494.39 324.44 489.54 C 316.66 484.89 309.09 479.72 302.32 473.68 C 300.34 471.93 298.29 470.25 296.22 468.60 C 298.88 465.11 301.73 461.81 304.72 458.60 C 310.56 452.13 315.85 445.14 321.17 438.25 C 323.32 434.96 327.54 435.43 330.96 434.75 C 342.22 433.58 353.19 431.10 364.28 428.95 Z" fill="#e0e0e8" />
    <path d="M 268.13 437.79 C 279.17 437.42 290.28 437.63 301.33 437.71 C 296.76 444.72 290.80 451.20 284.82 457.03 C 280.82 453.44 277.63 449.19 274.03 445.23 C 271.90 442.84 269.83 440.52 268.13 437.79 Z" fill="#e0e0e8" />
</svg>